<svg xmlns="http://www.w3.org/2000/svg" xmlns:xlink="http://www.w3.org/1999/xlink" width="500" zoomAndPan="magnify" viewBox="0 0 375 374.999991" height="500" preserveAspectRatio="xMidYMid meet" version="1.0"><defs><g><g id="id1"/></g><clipPath id="id2"><path d="M 0 0 L 372.253906 0 L 372.253906 121.332031 L 0 121.332031 Z M 0 0 " clip-rule="nonzero"/></clipPath></defs><g clip-path="url(#id2)"><path fill="rgb(6.669617%, 27.839661%, 24.308777%)" d="M 185.703125 -1.519531 L 248.972656 39.785156 L 372.253906 120.144531 L 372.253906 451.875 L -0.992188 451.875 L -0.992188 120.214844 L 122.285156 39.855469 Z M 361.378906 126.085938 L 243.027344 48.914062 L 185.703125 11.449219 L 128.15625 48.914062 L 9.804688 126.085938 L 9.804688 441.003906 L 361.308594 441.003906 L 361.308594 126.085938 Z M 361.378906 126.085938 " fill-opacity="1" fill-rule="nonzero"/></g><g fill="rgb(6.669617%, 27.839661%, 24.308777%)" fill-opacity="1"><g transform="translate(84.025336, 362.812594)"><g><path d="M 14.890625 -11.859375 L 9.578125 -11.859375 L 9.578125 0 L 2.890625 0 L 2.890625 -32.421875 L 14.9375 -32.421875 C 18.769531 -32.421875 21.722656 -31.566406 23.796875 -29.859375 C 25.878906 -28.148438 26.921875 -25.738281 26.921875 -22.625 C 26.921875 -20.40625 26.441406 -18.554688 25.484375 -17.078125 C 24.523438 -15.609375 23.070312 -14.4375 21.125 -13.5625 L 28.140625 -0.3125 L 28.140625 0 L 20.96875 0 Z M 9.578125 -17.28125 L 14.953125 -17.28125 C 16.628906 -17.28125 17.925781 -17.707031 18.84375 -18.5625 C 19.769531 -19.414062 20.234375 -20.585938 20.234375 -22.078125 C 20.234375 -23.609375 19.796875 -24.8125 18.921875 -25.6875 C 18.054688 -26.5625 16.726562 -27 14.9375 -27 L 9.578125 -27 Z M 9.578125 -17.28125 "/></g></g></g><g fill="rgb(6.669617%, 27.839661%, 24.308777%)" fill-opacity="1"><g transform="translate(113.125016, 362.812594)"><g><path d="M 27.421875 -32.421875 L 27.421875 -11.0625 C 27.421875 -7.519531 26.3125 -4.71875 24.09375 -2.65625 C 21.875 -0.59375 18.84375 0.4375 15 0.4375 C 11.21875 0.4375 8.210938 -0.5625 5.984375 -2.5625 C 3.765625 -4.5625 2.628906 -7.3125 2.578125 -10.8125 L 2.578125 -32.421875 L 9.265625 -32.421875 L 9.265625 -11.015625 C 9.265625 -8.898438 9.769531 -7.351562 10.78125 -6.375 C 11.800781 -5.40625 13.207031 -4.921875 15 -4.921875 C 18.757812 -4.921875 20.664062 -6.894531 20.71875 -10.84375 L 20.71875 -32.421875 Z M 9.65625 -38.5 C 9.65625 -39.769531 10.132812 -40.847656 11.09375 -41.734375 C 12.0625 -42.617188 13.234375 -43.0625 14.609375 -43.0625 C 15.972656 -43.0625 17.140625 -42.625 18.109375 -41.75 C 19.085938 -40.882812 19.578125 -39.800781 19.578125 -38.5 C 19.578125 -37.238281 19.101562 -36.175781 18.15625 -35.3125 C 17.207031 -34.445312 16.023438 -34.015625 14.609375 -34.015625 C 13.171875 -34.015625 11.984375 -34.453125 11.046875 -35.328125 C 10.117188 -36.210938 9.65625 -37.269531 9.65625 -38.5 Z M 12.203125 -38.5 C 12.203125 -37.84375 12.414062 -37.28125 12.84375 -36.8125 C 13.28125 -36.34375 13.867188 -36.109375 14.609375 -36.109375 C 15.359375 -36.109375 15.945312 -36.34375 16.375 -36.8125 C 16.800781 -37.28125 17.015625 -37.84375 17.015625 -38.5 C 17.015625 -39.175781 16.796875 -39.75 16.359375 -40.21875 C 15.921875 -40.6875 15.335938 -40.921875 14.609375 -40.921875 C 13.878906 -40.921875 13.296875 -40.6875 12.859375 -40.21875 C 12.421875 -39.75 12.203125 -39.175781 12.203125 -38.5 Z M 12.203125 -38.5 "/></g></g></g><g fill="rgb(6.669617%, 27.839661%, 24.308777%)" fill-opacity="1"><g transform="translate(143.137534, 362.812594)"><g><path d="M 9.96875 -5.359375 L 26.3125 -5.359375 L 26.3125 0 L 1.625 0 L 1.625 -3.921875 L 17.65625 -27 L 1.640625 -27 L 1.640625 -32.421875 L 25.953125 -32.421875 L 25.953125 -28.578125 Z M 13.65625 -38.03125 L 16.921875 -41.21875 L 22.40625 -41.21875 L 22.40625 -40.96875 L 15.6875 -34.71875 L 11.609375 -34.71875 L 4.890625 -41.015625 L 4.890625 -41.21875 L 10.390625 -41.21875 Z M 13.65625 -38.03125 "/></g></g></g><g fill="rgb(6.669617%, 27.839661%, 24.308777%)" fill-opacity="1"><g transform="translate(170.767758, 362.812594)"><g><path d="M 22.390625 -14.046875 L 9.578125 -14.046875 L 9.578125 -5.359375 L 24.625 -5.359375 L 24.625 0 L 2.890625 0 L 2.890625 -32.421875 L 24.578125 -32.421875 L 24.578125 -27 L 9.578125 -27 L 9.578125 -19.28125 L 22.390625 -19.28125 Z M 22.390625 -14.046875 "/></g></g></g><g fill="rgb(6.669617%, 27.839661%, 24.308777%)" fill-opacity="1"><g transform="translate(196.416438, 362.812594)"><g><path d="M 29.25 0 L 22.578125 0 L 9.578125 -21.328125 L 9.578125 0 L 2.890625 0 L 2.890625 -32.421875 L 9.578125 -32.421875 L 22.59375 -11.046875 L 22.59375 -32.421875 L 29.25 -32.421875 Z M 29.25 0 "/></g></g></g><g fill="rgb(6.669617%, 27.839661%, 24.308777%)" fill-opacity="1"><g transform="translate(228.610875, 362.812594)"><g><path d="M 13.046875 -13 L 9.578125 -9.265625 L 9.578125 0 L 2.890625 0 L 2.890625 -32.421875 L 9.578125 -32.421875 L 9.578125 -17.71875 L 12.515625 -21.75 L 20.765625 -32.421875 L 28.984375 -32.421875 L 17.46875 -18.015625 L 29.3125 0 L 21.375 0 Z M 13.046875 -13 "/></g></g></g><g fill="rgb(6.669617%, 27.839661%, 24.308777%)" fill-opacity="1"><g transform="translate(257.554698, 362.812594)"><g><path d="M 21.1875 -6.671875 L 9.484375 -6.671875 L 7.25 0 L 0.15625 0 L 12.21875 -32.421875 L 18.40625 -32.421875 L 30.546875 0 L 23.4375 0 Z M 11.28125 -12.09375 L 19.390625 -12.09375 L 15.3125 -24.21875 Z M 11.28125 -12.09375 "/></g></g></g><g fill="rgb(6.669617%, 27.839661%, 24.308777%)" fill-opacity="1"><g transform="translate(25.683515, 249.906752)"><g><path d="M 13.0625 -11.117188 L 12.925781 -10.980469 C 13.0625 -11.117188 13.0625 -11.117188 13.0625 -11.257812 L 13.0625 -11.953125 C 14.59375 -20.152344 17.511719 -28.214844 20.429688 -36.136719 C 23.488281 -44.472656 26.40625 -52.675781 30.296875 -60.597656 C 33.910156 -68.101562 38.082031 -75.46875 42.804688 -82.277344 C 46.976562 -88.53125 51.980469 -95.34375 58.371094 -99.511719 C 60.320312 -100.066406 62.265625 -102.152344 64.765625 -101.734375 C 67.265625 -101.316406 67.265625 -98.675781 66.710938 -96.175781 C 67.40625 -98.121094 67.824219 -100.207031 66.15625 -101.597656 C 63.933594 -103.265625 59.625 -100.625 57.816406 -99.371094 C 56.984375 -99.09375 56.148438 -98.539062 55.453125 -97.984375 C 55.871094 -98.398438 56.425781 -98.816406 57.121094 -99.234375 L 56.425781 -98.957031 L 58.371094 -100.066406 C 60.597656 -101.316406 65.601562 -104.097656 67.265625 -100.484375 C 68.519531 -97.566406 66.574219 -92.703125 65.601562 -89.921875 C 63.792969 -85.195312 61.570312 -80.75 59.207031 -76.300781 C 59.625 -77.273438 61.292969 -81.027344 61.292969 -81.027344 C 60.320312 -81.164062 55.871094 -70.882812 55.035156 -70.601562 L 55.175781 -70.601562 C 54.621094 -70.1875 54.203125 -69.769531 54.203125 -69.628906 C 53.925781 -67.960938 55.871094 -68.378906 56.984375 -68.519531 C 61.707031 -69.074219 67.824219 -73.105469 70.882812 -76.578125 C 74.214844 -80.332031 75.46875 -86.03125 75.46875 -91.035156 L 75.46875 -91.171875 C 75.328125 -100.625 68.796875 -112.574219 57.539062 -111.882812 C 51.285156 -111.601562 45.449219 -105.488281 41.417969 -101.316406 C 38.5 -97.984375 35.71875 -94.367188 33.21875 -90.753906 C 32.105469 -89.085938 30.992188 -87.558594 30.019531 -85.890625 C 28.910156 -84.363281 26.683594 -82 26.128906 -80.191406 C 26.128906 -80.191406 26.824219 -81.027344 27.378906 -81.582031 C 25.851562 -79.21875 24.460938 -76.71875 23.070312 -74.355469 C 22.933594 -74.496094 23.90625 -76.441406 23.90625 -76.441406 C 22.652344 -76.71875 16.957031 -65.320312 16.261719 -64.070312 C 13.757812 -59.484375 11.535156 -54.898438 10.007812 -50.035156 C 8.339844 -44.613281 6.113281 -39.472656 4.449219 -34.191406 C 3.613281 -31.550781 2.78125 -29.046875 2.222656 -26.40625 C 1.945312 -25.15625 1.667969 -24.042969 1.527344 -22.792969 C 1.527344 -22.652344 1.25 -20.429688 1.527344 -20.707031 C 1.25 -19.734375 1.25 -18.484375 1.113281 -17.511719 C 1.113281 -17.511719 1.113281 -19.875 1.25 -20.152344 C 0.695312 -19.457031 1.113281 -16.816406 0.972656 -16.539062 C 0.277344 -11.257812 -0.832031 -5.699219 0.972656 -0.554688 C 3.335938 6.53125 9.171875 12.371094 15.566406 16.121094 C 18.902344 18.207031 23.347656 20.570312 27.519531 20.292969 C 32.382812 20.011719 37.109375 15.984375 40.722656 13.0625 C 51.285156 4.167969 60.875 -8.339844 62.679688 -22.515625 C 62.820312 -23.488281 63.515625 -28.351562 61.847656 -28.492188 C 60.320312 -28.628906 59.207031 -25.292969 58.652344 -24.460938 C 54.480469 -17.652344 49.617188 -11.257812 44.195312 -5.421875 C 38.636719 0.695312 31.6875 7.226562 23.210938 9.171875 C 22.097656 9.449219 20.847656 9.589844 19.597656 9.589844 C 17.929688 9.449219 16.398438 9.035156 15.148438 7.78125 C 14.453125 7.089844 13.757812 4.726562 12.925781 4.308594 C 12.925781 3.613281 12.785156 2.917969 12.648438 2.5 L 12.230469 1.667969 C 12.089844 -2.5 12.230469 -6.394531 12.925781 -10.703125 L 12.925781 -10.839844 C 12.925781 -10.980469 13.0625 -10.980469 13.0625 -11.117188 Z M 37.523438 -79.082031 C 32.105469 -70.1875 27.519531 -61.011719 22.933594 -51.5625 C 20.292969 -46.003906 17.652344 -40.304688 15.566406 -34.328125 C 18.484375 -43.640625 21.960938 -52.535156 26.128906 -61.429688 C 31.132812 -72.132812 37.804688 -82.554688 45.726562 -91.171875 C 42.527344 -87.28125 39.75 -82.832031 37.523438 -79.082031 Z M 51.839844 -94.367188 C 49.894531 -92.421875 48.089844 -90.199219 46.421875 -88.113281 C 49.0625 -91.589844 51.839844 -95.0625 55.316406 -97.84375 C 54.0625 -96.730469 52.8125 -95.34375 51.839844 -94.367188 Z M 66.015625 -93.257812 C 66.292969 -94.089844 66.574219 -95.0625 66.710938 -96.175781 C 66.433594 -94.925781 65.878906 -93.675781 65.878906 -92.703125 C 66.015625 -92.980469 66.015625 -93.117188 66.015625 -93.257812 Z M 66.015625 -93.257812 "/></g></g></g><g fill="rgb(6.669617%, 27.839661%, 24.308777%)" fill-opacity="1"><g transform="translate(101.979988, 249.906752)"><g><path d="M 68.933594 -34.191406 C 68.242188 -34.191406 67.265625 -32.800781 66.851562 -32.382812 C 64.90625 -30.4375 63.238281 -28.214844 61.570312 -26.128906 C 56.984375 -20.847656 52.394531 -15.425781 47.394531 -10.5625 C 46.140625 -9.449219 42.945312 -5.699219 41.140625 -6.949219 C 40.027344 -7.644531 41 -12.089844 41.140625 -13.0625 C 41.417969 -14.316406 43.917969 -20.847656 43.085938 -21.679688 C 42.667969 -21.960938 41.972656 -19.875 41.832031 -19.734375 C 44.058594 -27.519531 48.503906 -36.414062 52.117188 -44.058594 C 54.203125 -48.226562 56.84375 -53.371094 53.371094 -57.679688 C 47.253906 -65.183594 39.609375 -55.59375 35.441406 -51.144531 C 33.632812 -49.199219 16.121094 -27.796875 16.398438 -27.65625 C 16.398438 -27.65625 17.652344 -29.1875 19.457031 -31.269531 C 16.816406 -27.796875 14.316406 -24.320312 11.953125 -20.707031 C 13.480469 -26.40625 15.148438 -31.964844 16.957031 -37.523438 C 17.929688 -40.304688 18.761719 -43.222656 19.734375 -46.140625 C 20.847656 -49.199219 21.679688 -50.449219 24.042969 -52.675781 C 28.074219 -56.289062 31.964844 -60.179688 35.578125 -64.347656 C 36.96875 -66.015625 37.941406 -67.960938 39.332031 -69.492188 C 40.582031 -70.742188 42.390625 -71.855469 43.78125 -73.382812 C 50.867188 -81.722656 56.566406 -92.144531 61.292969 -101.875 C 63.375 -106.460938 65.320312 -111.1875 66.710938 -116.050781 C 66.988281 -117.164062 70.046875 -129.949219 69.351562 -129.949219 C 69.214844 -129.949219 69.214844 -129.808594 69.074219 -129.53125 C 69.214844 -131.753906 69.074219 -134.257812 68.242188 -136.480469 C 68.378906 -136.480469 69.074219 -134.394531 69.074219 -134.394531 C 69.90625 -134.953125 67.40625 -139.261719 66.851562 -139.816406 C 65.601562 -141.066406 63.792969 -141.761719 61.984375 -141.761719 C 58.371094 -142.039062 55.035156 -140.09375 52.257812 -138.007812 C 46.976562 -133.980469 43.222656 -128.003906 39.332031 -122.582031 C 37.109375 -119.523438 35.023438 -116.46875 33.078125 -113.269531 C 31.6875 -111.1875 28.628906 -107.433594 28.628906 -104.933594 C 28.769531 -104.792969 28.910156 -104.792969 28.910156 -104.792969 L 27.242188 -101.597656 C 27.242188 -101.597656 28.074219 -104.097656 28.214844 -104.238281 C 27.519531 -103.820312 26.824219 -100.902344 26.824219 -100.761719 C 21.402344 -90.199219 15.703125 -80.054688 11.953125 -68.796875 C 7.644531 -56.148438 4.449219 -43.085938 2.085938 -30.019531 C 0.972656 -24.042969 -0.417969 -17.511719 0.140625 -11.398438 C 0.140625 -9.730469 0.277344 -7.78125 1.527344 -6.394531 C 3.058594 -4.449219 6.253906 -3.753906 8.0625 -5.699219 C 8.617188 -6.394531 8.617188 -6.808594 8.894531 -7.503906 L 11.398438 -11.953125 C 14.730469 -17.09375 18.761719 -21.820312 21.960938 -27.101562 C 22.375 -27.933594 22.792969 -28.910156 23.347656 -29.601562 C 24.042969 -30.4375 24.320312 -30.019531 25.15625 -30.714844 C 27.519531 -32.660156 29.324219 -35.578125 31.269531 -37.941406 C 35.300781 -42.945312 39.332031 -48.644531 44.472656 -52.8125 L 40.445312 -43.085938 L 40.859375 -43.5 L 38.777344 -38.777344 C 38.636719 -38.914062 39.191406 -40.164062 39.191406 -40.304688 C 38.636719 -40.304688 35.996094 -34.882812 35.71875 -34.328125 C 34.050781 -30.992188 32.242188 -27.65625 31.269531 -24.183594 C 30.4375 -20.847656 29.464844 -17.511719 28.492188 -14.175781 C 28.074219 -12.089844 27.65625 -10.007812 27.796875 -7.921875 C 27.796875 -7.367188 28.910156 -2.363281 29.324219 -2.78125 L 29.324219 -3.335938 C 29.601562 -2.5 29.882812 -1.808594 30.296875 -1.113281 L 29.464844 -2.363281 C 29.046875 -1.390625 32.800781 1.808594 33.21875 2.222656 C 35.300781 4.308594 37.386719 5.699219 40.582031 5.835938 C 43.222656 5.976562 44.613281 5.003906 46.558594 3.195312 C 51.839844 -1.945312 55.59375 -9.035156 59.625 -15.148438 C 61.847656 -18.34375 64.070312 -21.679688 66.15625 -25.015625 C 66.710938 -25.710938 70.464844 -33.496094 69.90625 -33.355469 C 70.742188 -33.496094 69.214844 -34.191406 68.933594 -34.191406 Z M 56.84375 -127.726562 L 56.84375 -127.863281 C 56.84375 -127.863281 56.984375 -127.863281 56.984375 -128.003906 L 56.984375 -127.863281 C 57.121094 -128.140625 57.261719 -128.417969 57.121094 -128.28125 C 58.234375 -129.949219 61.011719 -134.953125 62.960938 -133.285156 C 64.90625 -131.617188 63.097656 -125.777344 62.542969 -123.695312 C 61.429688 -119.386719 59.761719 -115.214844 58.09375 -111.1875 C 54.757812 -103.402344 50.589844 -96.035156 46.003906 -88.808594 C 43.78125 -85.335938 41.417969 -81.859375 39.054688 -78.523438 C 37.804688 -76.855469 36.550781 -75.191406 35.164062 -73.523438 L 34.050781 -72.269531 L 36.550781 -74.773438 L 42.113281 -82.554688 C 45.167969 -86.726562 48.089844 -91.3125 50.867188 -95.898438 C 43.78125 -83.390625 35.164062 -71.574219 25.15625 -61.011719 L 29.324219 -71.992188 C 29.742188 -72.828125 32.660156 -81.027344 32.660156 -81.027344 C 32.382812 -80.886719 31.964844 -80.191406 31.550781 -79.496094 C 34.882812 -87.140625 39.191406 -95.0625 43.085938 -102.707031 C 47.394531 -111.046875 51.703125 -119.664062 56.703125 -127.585938 C 56.703125 -127.585938 56.84375 -127.585938 56.84375 -127.726562 Z M 21.960938 -59.625 C 23.210938 -67.128906 26.683594 -74.214844 29.1875 -81.445312 C 31.410156 -87.558594 35.023438 -93.117188 37.804688 -98.957031 C 39.054688 -101.734375 52.394531 -127.167969 52.675781 -127.03125 C 53.785156 -126.335938 36.691406 -93.675781 34.882812 -89.78125 C 33.355469 -86.863281 31.964844 -84.085938 30.855469 -80.886719 C 29.882812 -77.832031 28.214844 -75.328125 27.101562 -72.410156 C 26.546875 -71.019531 20.988281 -56.425781 21.402344 -56.289062 C 21.125 -56.289062 21.679688 -58.511719 21.820312 -59.207031 Z M 31.550781 -69.351562 C 31.828125 -69.628906 32.105469 -70.1875 32.523438 -70.601562 C 32.105469 -70.1875 31.828125 -69.769531 31.550781 -69.351562 Z M 56.84375 -127.726562 L 56.84375 -127.863281 L 56.984375 -127.863281 Z M 21.960938 -59.484375 C 21.960938 -59.34375 21.820312 -59.207031 21.820312 -59.207031 C 21.820312 -59.34375 21.960938 -59.34375 21.960938 -59.484375 Z M 21.960938 -59.484375 "/></g></g></g><g fill="rgb(6.669617%, 27.839661%, 24.308777%)" fill-opacity="1"><g transform="translate(168.826332, 249.906752)"><g><path d="M 70.742188 -33.496094 C 70.601562 -36.550781 68.101562 -33.910156 67.265625 -32.800781 C 65.460938 -30.160156 63.792969 -27.378906 62.125 -24.738281 C 58.371094 -19.039062 54.621094 -13.34375 50.3125 -7.921875 C 35.996094 9.730469 46.003906 -21.679688 44.890625 -21.402344 C 44.335938 -21.265625 43.917969 -19.179688 43.78125 -18.761719 C 44.890625 -23.765625 46.976562 -29.742188 49.617188 -34.605469 C 51.144531 -37.664062 52.953125 -40.164062 50.171875 -43.5 C 45.03125 -49.753906 39.054688 -44.058594 35.71875 -39.75 C 34.328125 -45.03125 31.550781 -52.8125 24.738281 -52.8125 C 21.679688 -52.8125 19.875 -51.285156 17.789062 -49.476562 C 16.539062 -48.644531 15.566406 -48.503906 14.453125 -47.53125 C 12.648438 -46.28125 11.398438 -44.335938 10.144531 -42.667969 C 5.421875 -35.71875 2.085938 -26.960938 0.554688 -18.902344 C -0.140625 -15.011719 -0.417969 -10.703125 0.695312 -6.808594 C 1.390625 -4.585938 3.890625 0.417969 7.089844 0 C 7.226562 0 6.949219 -0.140625 6.53125 -0.417969 C 8.476562 0.140625 10.703125 -0.140625 12.371094 -1.25 C 12.507812 -0.972656 10.839844 -0.277344 10.839844 -0.277344 C 12.371094 2.085938 23.765625 -11.675781 24.601562 -12.925781 C 26.40625 -15.425781 27.65625 -18.066406 29.324219 -20.707031 C 30.574219 -22.652344 32.523438 -25.15625 33.910156 -27.242188 C 33.773438 -26.269531 33.773438 -25.015625 33.773438 -25.015625 C 31.269531 -17.09375 28.910156 -8.476562 32.242188 -0.277344 C 33.773438 3.890625 37.523438 7.78125 42.25 6.949219 C 46.421875 6.253906 49.894531 2.222656 52.394531 -0.972656 C 55.453125 -4.585938 58.09375 -8.617188 60.734375 -12.785156 C 62.960938 -16.539062 65.042969 -20.292969 66.851562 -24.460938 C 67.960938 -27.101562 71.019531 -30.296875 70.742188 -33.496094 Z M 30.855469 -32.523438 C 30.160156 -31.550781 29.464844 -30.574219 28.910156 -29.601562 L 25.292969 -24.460938 C 22.933594 -20.988281 20.429688 -17.652344 17.789062 -14.453125 C 17.09375 -13.480469 13.757812 -9.171875 12.371094 -9.589844 C 10.285156 -10.285156 12.507812 -17.511719 12.785156 -18.625 C 13.203125 -20.570312 20.570312 -41.972656 22.515625 -42.390625 C 20.011719 -42.527344 11.953125 -17.371094 11.535156 -15.289062 C 12.648438 -22.097656 15.148438 -28.769531 17.929688 -35.023438 C 19.457031 -38.21875 22.933594 -46.699219 27.519531 -46.699219 C 30.019531 -46.699219 30.574219 -41.554688 30.992188 -39.886719 C 30.855469 -40.164062 29.601562 -44.195312 29.464844 -44.058594 C 28.769531 -43.5 31.550781 -35.859375 31.550781 -34.746094 C 31.550781 -33.632812 31.550781 -33.632812 30.855469 -32.523438 Z M 34.050781 -25.710938 C 34.050781 -25.710938 34.46875 -27.65625 34.605469 -28.074219 L 35.300781 -29.046875 Z M 31.964844 -34.328125 L 31.964844 -35.71875 C 32.382812 -35.164062 32.382812 -34.746094 31.964844 -34.328125 Z M 31.964844 -34.328125 "/></g></g></g><g fill="rgb(6.669617%, 27.839661%, 24.308777%)" fill-opacity="1"><g transform="translate(236.367538, 249.906752)"><g><path d="M 56.425781 -72.269531 C 56.289062 -74.214844 54.203125 -72.6875 53.089844 -72.6875 C 47.53125 -72.410156 41.972656 -72.410156 36.550781 -72.132812 C 36.550781 -72.269531 36.832031 -72.828125 37.246094 -73.660156 C 36.691406 -72.6875 36.273438 -72.132812 35.859375 -72.132812 C 40.027344 -80.609375 44.472656 -89.085938 49.753906 -96.871094 C 49.617188 -96.59375 47.53125 -93.117188 47.671875 -93.117188 C 48.089844 -92.980469 53.230469 -100.066406 53.371094 -101.039062 C 53.371094 -101.597656 52.117188 -100.207031 52.117188 -100.34375 C 52.953125 -101.179688 54.34375 -101.875 54.757812 -102.984375 C 55.730469 -105.765625 52.8125 -107.015625 50.730469 -107.433594 C 46.421875 -108.265625 41.554688 -107.710938 38.777344 -104.097656 C 36.136719 -100.902344 34.191406 -97.148438 32.523438 -93.394531 C 31.6875 -91.726562 30.574219 -91.3125 29.464844 -89.78125 C 27.796875 -87.421875 26.683594 -84.640625 25.433594 -82 C 24.320312 -79.636719 23.210938 -77.136719 22.238281 -74.632812 C 21.679688 -73.382812 21.679688 -72.410156 20.429688 -71.992188 C 19.179688 -71.4375 16.816406 -71.855469 15.425781 -71.714844 C 10.007812 -71.019531 4.726562 -71.296875 -0.695312 -70.742188 C -3.472656 -70.601562 -6.253906 -70.601562 -8.894531 -69.628906 C -9.449219 -69.492188 -12.507812 -68.796875 -12.785156 -68.378906 C -13.621094 -66.851562 -10.285156 -66.710938 -9.589844 -66.574219 C -4.308594 -65.878906 2.363281 -65.320312 7.644531 -66.292969 C 11.257812 -66.988281 15.011719 -66.710938 18.902344 -66.988281 C 16.957031 -62.820312 15.425781 -58.371094 13.898438 -53.925781 L 12.230469 -49.0625 C 11.675781 -47.53125 9.867188 -44.613281 9.867188 -42.945312 C 9.867188 -42.667969 10.285156 -43.363281 10.5625 -44.058594 C 9.867188 -41.972656 9.035156 -39.886719 8.476562 -37.804688 C 8.476562 -37.941406 8.894531 -39.609375 8.757812 -39.609375 C 8.0625 -39.609375 5.28125 -31.132812 5.003906 -30.4375 C 3.613281 -26.269531 2.085938 -22.097656 1.390625 -17.652344 C 0.554688 -13.203125 -0.554688 -8.894531 -1.527344 -4.585938 C -2.085938 -2.363281 -2.640625 -0.277344 -2.917969 1.945312 C -3.195312 3.058594 -3.472656 4.308594 -3.472656 5.421875 C -3.472656 5.699219 -3.472656 7.503906 -3.195312 6.949219 L -3.472656 9.730469 L -3.472656 7.644531 C -4.308594 8.617188 -3.472656 13.0625 -3.335938 13.898438 C -2.78125 16.679688 -1.390625 19.179688 1.113281 20.847656 C 3.335938 22.515625 6.808594 24.042969 9.449219 22.792969 C 12.925781 21.125 15.84375 17.234375 18.066406 14.453125 C 22.933594 8.757812 27.378906 2.78125 31.828125 -3.195312 C 35.859375 -8.757812 40.027344 -14.175781 43.5 -20.011719 C 45.449219 -23.347656 49.199219 -26.40625 50.449219 -30.160156 C 51.144531 -31.964844 50.730469 -34.191406 48.503906 -33.773438 C 46.699219 -33.355469 44.195312 -28.492188 43.085938 -27.101562 C 38.082031 -20.847656 33.355469 -14.453125 28.351562 -8.199219 L 20.292969 1.667969 C 19.039062 3.058594 17.789062 4.585938 16.398438 5.976562 C 15.84375 6.671875 12.371094 9.449219 12.507812 10.285156 C 12.507812 10.5625 14.039062 9.3125 14.59375 8.894531 C 13.898438 9.730469 13.0625 10.421875 12.371094 11.117188 C 12.507812 10.980469 9.589844 12.648438 9.171875 12.371094 C 6.53125 11.257812 8.894531 3.195312 9.3125 1.25 C 11.8125 -10.007812 15.566406 -21.402344 19.320312 -32.242188 C 21.542969 -38.21875 23.765625 -43.917969 26.269531 -49.753906 C 27.519531 -52.675781 28.769531 -55.730469 30.160156 -58.652344 L 32.105469 -63.933594 L 30.574219 -60.875 C 31.550781 -63.375 32.9375 -67.128906 33.773438 -67.265625 L 33.355469 -66.433594 C 33.632812 -66.851562 33.910156 -67.128906 34.191406 -67.265625 C 35.71875 -68.242188 39.609375 -67.265625 41.417969 -67.265625 C 42.667969 -67.265625 44.195312 -67.128906 45.449219 -67.546875 C 46.28125 -67.824219 46.003906 -68.242188 46.976562 -68.519531 C 48.644531 -68.796875 50.730469 -67.683594 52.535156 -68.242188 C 54.203125 -68.65625 56.566406 -70.1875 56.425781 -72.132812 Z M 30.019531 -64.210938 C 23.765625 -51.007812 19.039062 -36.832031 14.039062 -23.070312 C 11.675781 -16.816406 9.449219 -10.285156 7.921875 -3.753906 L 7.226562 -1.113281 C 8.199219 -6.113281 9.3125 -10.980469 10.703125 -15.84375 C 13.757812 -26.546875 17.652344 -37.109375 22.238281 -47.253906 C 30.019531 -64.625 36.96875 -83.25 48.089844 -98.957031 C 40.582031 -88.253906 35.578125 -76.023438 30.019531 -64.210938 Z M 39.191406 -77.96875 L 42.527344 -84.363281 C 41.832031 -84.222656 40.582031 -81.164062 39.191406 -77.96875 Z M 24.878906 -47.671875 C 23.90625 -45.03125 22.792969 -42.527344 21.679688 -40.027344 C 22.792969 -42.667969 23.765625 -45.449219 25.015625 -48.226562 C 24.878906 -47.949219 24.878906 -47.808594 24.878906 -47.671875 Z M 37.386719 -73.9375 L 38.777344 -76.996094 C 38.359375 -75.882812 37.804688 -74.773438 37.386719 -73.9375 Z M 7.089844 13.621094 C 6.949219 13.621094 6.808594 13.480469 6.671875 13.34375 Z M 7.089844 13.621094 "/></g></g></g><g fill="rgb(6.669617%, 27.839661%, 24.308777%)" fill-opacity="1"><g transform="translate(285.981288, 249.906752)"><g><path d="M 70.742188 -33.496094 C 70.601562 -36.550781 68.101562 -33.910156 67.265625 -32.800781 C 65.460938 -30.160156 63.792969 -27.378906 62.125 -24.738281 C 58.371094 -19.039062 54.621094 -13.34375 50.3125 -7.921875 C 35.996094 9.730469 46.003906 -21.679688 44.890625 -21.402344 C 44.335938 -21.265625 43.917969 -19.179688 43.78125 -18.761719 C 44.890625 -23.765625 46.976562 -29.742188 49.617188 -34.605469 C 51.144531 -37.664062 52.953125 -40.164062 50.171875 -43.5 C 45.03125 -49.753906 39.054688 -44.058594 35.71875 -39.75 C 34.328125 -45.03125 31.550781 -52.8125 24.738281 -52.8125 C 21.679688 -52.8125 19.875 -51.285156 17.789062 -49.476562 C 16.539062 -48.644531 15.566406 -48.503906 14.453125 -47.53125 C 12.648438 -46.28125 11.398438 -44.335938 10.144531 -42.667969 C 5.421875 -35.71875 2.085938 -26.960938 0.554688 -18.902344 C -0.140625 -15.011719 -0.417969 -10.703125 0.695312 -6.808594 C 1.390625 -4.585938 3.890625 0.417969 7.089844 0 C 7.226562 0 6.949219 -0.140625 6.53125 -0.417969 C 8.476562 0.140625 10.703125 -0.140625 12.371094 -1.25 C 12.507812 -0.972656 10.839844 -0.277344 10.839844 -0.277344 C 12.371094 2.085938 23.765625 -11.675781 24.601562 -12.925781 C 26.40625 -15.425781 27.65625 -18.066406 29.324219 -20.707031 C 30.574219 -22.652344 32.523438 -25.15625 33.910156 -27.242188 C 33.773438 -26.269531 33.773438 -25.015625 33.773438 -25.015625 C 31.269531 -17.09375 28.910156 -8.476562 32.242188 -0.277344 C 33.773438 3.890625 37.523438 7.78125 42.25 6.949219 C 46.421875 6.253906 49.894531 2.222656 52.394531 -0.972656 C 55.453125 -4.585938 58.09375 -8.617188 60.734375 -12.785156 C 62.960938 -16.539062 65.042969 -20.292969 66.851562 -24.460938 C 67.960938 -27.101562 71.019531 -30.296875 70.742188 -33.496094 Z M 30.855469 -32.523438 C 30.160156 -31.550781 29.464844 -30.574219 28.910156 -29.601562 L 25.292969 -24.460938 C 22.933594 -20.988281 20.429688 -17.652344 17.789062 -14.453125 C 17.09375 -13.480469 13.757812 -9.171875 12.371094 -9.589844 C 10.285156 -10.285156 12.507812 -17.511719 12.785156 -18.625 C 13.203125 -20.570312 20.570312 -41.972656 22.515625 -42.390625 C 20.011719 -42.527344 11.953125 -17.371094 11.535156 -15.289062 C 12.648438 -22.097656 15.148438 -28.769531 17.929688 -35.023438 C 19.457031 -38.21875 22.933594 -46.699219 27.519531 -46.699219 C 30.019531 -46.699219 30.574219 -41.554688 30.992188 -39.886719 C 30.855469 -40.164062 29.601562 -44.195312 29.464844 -44.058594 C 28.769531 -43.5 31.550781 -35.859375 31.550781 -34.746094 C 31.550781 -33.632812 31.550781 -33.632812 30.855469 -32.523438 Z M 34.050781 -25.710938 C 34.050781 -25.710938 34.46875 -27.65625 34.605469 -28.074219 L 35.300781 -29.046875 Z M 31.964844 -34.328125 L 31.964844 -35.71875 C 32.382812 -35.164062 32.382812 -34.746094 31.964844 -34.328125 Z M 31.964844 -34.328125 "/></g></g></g></svg>